<svg width="59" height="68" viewBox="0 0 59 68" fill="none" xmlns="http://www.w3.org/2000/svg">
<g clip-path="url(#clip0_40_4909)">
<path d="M29.676 66.4193C29.5004 66.2436 29.676 65.8922 29.5004 65.7165C29.5004 65.8922 29.3248 66.0679 29.3248 66.2436C29.3248 66.4193 29.3248 66.5951 29.3248 66.7708C29.3248 67.1222 29.3248 67.1222 28.9736 67.1222C28.798 67.1222 28.6224 67.1222 28.6224 67.1222C28.2712 67.1222 27.92 67.1222 27.5688 67.2979C27.2176 67.2979 26.8664 67.4736 26.6909 67.4736C26.3397 67.4736 25.9885 67.4736 25.6373 67.4736C25.1105 67.4736 24.7593 67.4736 24.2325 67.4736C23.5301 67.4736 22.8278 67.4736 22.1254 67.4736C22.1254 67.4736 22.1254 67.4736 22.1254 67.6493C22.1254 67.6493 22.301 67.825 22.1254 67.825C22.1254 67.825 21.9498 67.825 21.9498 67.6493C21.7742 67.6493 21.9498 67.4736 21.9498 67.4736C21.423 67.4736 20.7206 67.4736 20.1938 67.4736C19.667 67.4736 19.1403 67.4736 18.7891 67.4736C18.4379 67.4736 18.0867 67.4736 17.7355 67.4736H17.5599C17.3843 67.6493 17.2087 67.6493 17.0331 67.6493C15.9795 67.6493 14.926 67.6493 14.048 67.6493C13.3456 67.6493 12.8188 67.6493 12.1164 67.6493C11.7653 67.6493 11.4141 67.6493 11.2385 67.6493H11.0629C10.7117 67.4736 10.3605 67.4736 10.1849 67.825C10.1849 67.825 10.0093 68.0007 10.0093 67.825C9.65811 67.825 9.30692 67.825 8.95573 67.825C8.78014 67.825 8.42894 67.825 8.25335 67.825C8.25335 67.825 8.07775 67.825 8.07775 67.6493C7.90216 67.4736 7.55097 67.4736 7.19978 67.4736C7.19978 67.6493 7.37537 67.6493 7.37537 67.6493C7.37537 67.825 7.19978 67.6493 7.02418 67.6493C5.97061 67.6493 4.74144 67.6493 3.68787 67.6493C3.33668 67.6493 2.98549 67.6493 2.45871 67.6493C1.93192 67.6493 1.58073 67.6493 1.05394 67.4736C0.878348 67.4736 0.878348 67.4736 0.878348 67.2979C0.702753 67.1222 0.527158 66.7708 0.351562 66.5951C0.351562 66.5951 0.351562 66.4193 0.351562 66.2436C0.351562 63.0808 0.351562 59.7423 0.351562 56.5796C0.351562 53.7682 0.351562 50.7811 0.351562 47.9697C0.351562 47.2669 0.351562 46.7398 0.351562 46.0369C0.351562 45.6855 0.351562 45.3341 0.351562 44.9827C0.351562 44.8069 0.351562 44.4555 0.351562 44.2798C0.351562 43.9284 0.351562 43.7527 0.351562 43.4013V43.2255C0.351562 42.6984 0.351562 42.1713 0.351562 41.6442C0.351562 41.4684 0.351562 41.117 0.351562 40.9413V40.7656C0.527158 40.5899 0.527158 40.5899 0.527158 40.4142V40.2385C0.527158 39.887 0.527158 39.3599 0.351562 39.0085C0.351562 38.8328 0.351562 38.6571 0.351562 38.4814C0.351562 37.9542 0.351562 37.6028 0.351562 37.0757V36.9C0.702753 36.5485 0.878348 36.3728 1.22954 36.0214C1.40513 36.0214 1.40513 35.8457 1.58073 35.8457C2.45871 35.8457 3.33668 35.8457 4.21466 35.8457C7.02418 35.8457 9.65811 35.8457 12.4676 35.8457C13.5212 35.8457 14.5748 35.8457 15.6283 35.8457C16.3307 35.8457 17.0331 35.8457 17.7355 35.8457C18.2623 35.8457 18.7891 35.8457 19.3159 35.8457C19.8426 35.8457 20.1938 35.8457 20.7206 35.8457C21.423 35.8457 22.1254 35.8457 22.8278 35.8457C23.8813 35.8457 24.9349 35.8457 26.1641 35.8457C26.5153 35.8457 26.5153 35.8457 26.5153 36.1971C26.5153 36.5485 26.5153 36.9 26.3397 37.2514C26.3397 37.6028 26.1641 38.1299 26.1641 38.4814C26.1641 38.8328 25.9885 39.3599 25.9885 39.7113C25.8129 40.2385 25.8129 40.5899 25.6373 41.117C25.4617 41.8199 25.2861 42.5227 25.1105 43.2255C24.9349 44.2798 24.5837 45.1584 24.2325 46.0369C23.8813 47.0912 23.3545 47.9697 22.6522 48.8483C22.301 49.3754 21.7742 50.0783 21.423 50.6054C20.7206 51.4839 20.0182 52.1868 19.1403 53.0653C18.7891 53.4168 18.2623 53.9439 17.9111 54.2953C17.5599 54.6467 17.0331 55.1739 16.6819 55.5253C16.3307 55.8767 15.9795 56.2281 15.4528 56.5796C14.7504 57.1067 14.2236 57.8095 13.5212 58.5124C13.3456 58.6881 13.17 58.6881 13.17 58.5124C12.9944 58.3367 12.8188 58.3367 12.6432 58.5124C12.292 58.8638 11.9408 59.3909 11.7653 59.7423C11.2385 60.4452 10.8873 61.3237 10.5361 62.0266C10.1849 62.5537 10.0093 63.2566 10.0093 63.7837C10.0093 64.3108 10.0093 65.0137 10.1849 65.5408C10.3605 65.8922 10.5361 66.0679 10.8873 66.4193C11.0629 66.4193 11.0629 66.4193 11.2385 66.2436C11.5897 65.7165 11.7653 65.1894 12.1164 64.838C12.6432 63.7837 13.17 62.7294 13.8724 61.6752C13.5212 61.4994 14.048 60.9723 14.3992 60.4452C14.7504 59.9181 15.2772 59.5666 15.6283 59.0395C16.1551 58.5124 16.6819 57.9852 17.2087 57.4581C17.5599 56.931 18.0867 56.5796 18.6135 56.2281C19.4914 55.3496 20.545 54.6467 21.5986 53.9439C22.1254 53.5925 22.8278 53.0653 23.3545 52.7139C23.5301 52.7139 23.5301 52.7139 23.5301 52.8896C23.7057 53.5925 23.7057 54.2953 23.5301 54.9982C23.3545 56.0524 23.0034 57.1067 22.8278 58.1609C22.6522 58.8638 22.4766 59.5666 22.301 60.2695C22.301 60.4452 22.301 60.6209 22.301 60.9723C22.301 61.4995 22.1254 61.8509 21.9498 62.2023C21.7742 62.378 21.7742 62.5537 21.5986 62.7294C21.423 63.0808 21.5986 63.2566 21.7742 63.4323C22.1254 63.7837 22.4766 64.1351 22.8278 64.3108C23.7057 64.8379 24.4081 65.3651 25.2861 65.8922C25.8129 66.0679 26.3397 66.4193 26.8664 66.4193C27.3932 66.5951 27.92 66.5951 28.4468 66.4193C28.4468 66.4193 28.6224 66.4193 28.6224 66.2436C28.6224 66.0679 28.4468 66.0679 28.4468 65.8922C28.0956 65.5408 27.5688 65.1894 27.042 65.0137C26.5153 64.6622 25.9885 64.3108 25.6373 63.9594C25.2861 63.608 24.9349 63.0808 24.7593 62.5537C24.5837 62.2023 24.5837 62.0266 24.5837 61.6752C24.5837 60.4452 24.7593 59.3909 25.1105 58.3367C25.2861 57.4581 25.6373 56.4038 25.9885 55.5253C26.3397 54.8224 26.6909 54.1196 27.042 53.4168C27.7444 52.0111 28.2712 50.7811 28.9736 49.3754C29.1492 49.024 29.3248 48.8483 29.3248 48.4969L29.5004 48.3212V48.4969C29.5004 50.254 29.5004 52.1868 29.5004 53.9439C29.5004 55.701 29.5004 57.4581 29.5004 59.2152C29.5004 59.7423 29.5004 60.4452 29.5004 60.9723C29.5004 61.148 29.5004 61.4994 29.5004 61.6752C29.5004 62.0266 29.5004 62.378 29.5004 62.5537C29.5004 63.2566 29.5004 63.9594 29.5004 64.6622C29.676 65.5408 29.8516 65.8922 29.676 66.4193ZM0.702753 63.9594C0.527158 63.608 0.527158 63.7837 0.702753 63.9594C0.527158 63.7837 0.351562 63.9594 0.351562 63.9594C0.351562 63.9594 0.351562 63.9594 0.702753 63.9594C0.527158 63.9594 0.527158 63.9594 0.702753 63.9594Z" fill="white"/>
<path d="M44.0742 31.8036C45.1278 31.8036 45.8302 31.8036 46.7081 31.8036H46.8837C46.7081 31.8036 46.7081 31.8036 46.5326 31.8036C46.1814 31.8036 45.6546 31.8036 45.3034 31.8036C44.601 31.8036 44.0742 31.8036 43.3718 31.8036C43.0206 31.8036 42.6695 31.8036 42.1427 31.8036C41.9671 31.8036 41.7915 31.8036 41.6159 31.6279C41.6159 31.4522 41.4403 31.4522 41.2647 31.4522C40.5623 31.4522 40.0355 31.4522 39.3331 31.4522C39.5087 31.4522 39.8599 31.4522 40.0355 31.6279C39.5087 31.9793 37.7528 31.9793 37.5772 31.6279C37.7528 31.6279 37.9284 31.6279 38.104 31.4522C37.7528 31.2765 37.0504 31.2765 36.8748 31.4522L37.0504 31.6279C37.226 31.8036 37.0504 31.8036 37.0504 31.8036C36.6992 31.8036 36.1724 31.8036 35.8212 31.8036C35.6456 31.8036 35.6456 31.6279 35.6456 31.6279C35.6456 31.4522 35.6456 31.1008 35.6456 30.9251C35.6456 30.5736 35.8212 30.2222 35.8212 29.8708C35.8212 29.5194 35.9968 29.168 35.9968 28.8165C35.9968 28.4651 35.9968 28.1137 36.1724 27.7623C36.1724 27.4109 36.348 26.8837 36.348 26.5323C36.348 26.3566 36.348 26.1809 36.348 26.0052C36.348 25.6537 36.348 25.3023 36.348 24.9509C36.348 23.8966 36.348 22.6667 36.348 21.6124C36.348 21.0853 36.348 20.5581 36.348 20.031C36.348 19.5039 36.348 18.9767 36.348 18.4496C36.348 17.7468 36.5236 17.0439 36.8748 16.3411C37.226 15.4625 37.7528 14.7597 38.104 14.0568C38.6308 13.1783 38.982 12.2997 39.5087 11.4212C40.0355 10.5426 40.3867 9.66408 40.7379 8.60982C41.2647 7.55556 41.6159 6.50129 42.1427 5.44703C42.4939 4.56848 42.8451 3.68992 43.0206 2.81137C43.1962 2.28424 43.3718 1.75711 43.3718 1.22997C43.1962 1.22997 43.1962 1.40568 43.0206 1.5814C42.8451 2.45995 42.4939 3.3385 41.9671 4.04134C41.7915 4.39277 41.2647 4.39277 40.9135 4.39277C40.9135 4.39277 40.7379 4.39277 40.5623 4.39277C40.5623 4.39277 40.3867 4.39277 40.3867 4.56848V4.74419C40.3867 5.79845 40.2111 6.677 39.8599 7.55556C39.6843 8.08269 39.3331 8.60982 39.1576 9.31266C38.6308 10.3669 38.104 11.2455 37.4016 12.2997C37.0504 12.8269 36.6992 13.1783 36.348 13.7054C36.1724 13.8811 35.9968 14.2326 35.6456 14.4083C35.1189 14.9354 34.4165 15.4625 33.3629 15.814C33.3629 15.814 33.1873 15.814 33.0117 15.814C33.0117 15.6382 33.0117 15.6382 33.0117 15.4625C33.0117 11.2455 33.0117 7.02842 33.0117 2.63566C33.0117 2.28424 33.0117 1.93282 33.0117 1.5814C33.0117 1.22997 33.0117 0.878553 33.3629 0.702842C33.5385 0.527132 33.7141 0.351421 33.8897 0.175711C33.7141 0 33.8897 0 34.0653 0C35.1189 0 36.1724 0 37.226 0C39.5087 0 41.7915 0 44.0742 0C46.8837 0 49.8689 0 52.6784 0C54.2587 0 55.8391 0 57.4195 0C57.5951 0 57.9462 0 58.1218 0.351421C58.2974 0.527132 58.6486 0.878553 58.8242 1.05426C58.9998 1.22997 58.9998 1.22997 58.6486 1.40568C58.473 1.40568 58.473 1.40568 58.473 1.5814C58.473 2.10853 58.473 2.45995 58.473 2.98708C58.473 3.51421 58.473 4.04134 58.473 4.56848C58.473 4.9199 58.2974 5.44703 58.2974 5.79845C58.2974 5.97416 58.2974 6.32558 58.2974 6.50129C58.2974 7.73127 58.2974 8.96124 58.2974 10.3669C58.2974 13.7054 58.2974 16.8682 58.2974 20.2067C58.2974 21.261 58.2974 22.3152 58.2974 23.3695C58.2974 23.8966 58.473 24.4238 58.473 24.9509C58.473 25.1266 58.473 25.478 58.473 25.6537C58.2974 26.1809 58.2974 26.708 58.2974 27.2351C58.2974 27.7623 58.2974 28.4651 58.2974 28.9923C58.2974 29.3437 58.2974 29.8708 58.1218 30.2222C57.9462 30.2222 57.9462 30.2222 57.9462 30.3979C57.9462 30.7494 57.9462 31.1008 57.9462 31.4522C57.9462 31.6279 57.9462 31.6279 57.7707 31.6279C57.5951 31.6279 57.2439 31.6279 57.0683 31.6279C56.7171 31.6279 56.5415 31.6279 56.1903 31.6279C55.4879 31.6279 54.9611 31.6279 54.2587 31.6279C53.0296 31.6279 51.6248 31.6279 50.3956 31.6279C49.3421 31.6279 48.4641 31.6279 47.4105 31.6279C47.0593 31.6279 46.5326 31.6279 46.1814 31.6279C45.6546 31.6279 45.3034 31.6279 44.7766 31.6279C44.601 31.6279 44.4254 31.6279 44.0742 31.8036Z" fill="white"/>
<path d="M55.4884 62.9044C55.4884 63.2558 55.4884 63.6072 55.4884 63.9586C55.4884 64.31 55.4884 64.31 55.1372 64.31C54.6104 64.31 54.2592 64.31 53.7324 64.31C52.8544 64.31 52.1521 64.31 51.2741 64.31C50.7473 64.31 50.0449 64.31 49.5181 64.31C49.3425 64.31 49.1669 64.31 48.9914 64.4858C48.8158 64.6615 48.6402 64.6615 48.6402 64.4858C48.6402 64.4858 48.6402 64.31 48.8158 64.1343C48.4646 64.1343 48.1134 64.1343 47.9378 64.1343C46.1818 64.1343 44.6015 64.1343 42.8455 64.1343C42.4943 64.1343 42.3187 64.1343 41.9675 64.31C42.1431 64.31 42.1431 64.4858 42.3187 64.4858C43.1967 64.4858 44.0747 64.4858 44.7771 64.4858H44.9527C44.9527 64.6615 44.9527 64.6615 44.7771 64.6615C44.4259 64.6615 44.2503 64.8372 43.8991 64.8372C43.0211 64.8372 42.1431 64.8372 41.2652 64.8372C40.914 64.8372 40.3872 64.8372 40.036 64.8372C39.8604 64.8372 39.8604 64.8372 39.6848 64.6615C39.6848 64.4858 39.5092 64.4858 39.3336 64.4858C38.8068 64.4858 38.28 64.4858 37.5777 64.4858C37.7533 64.4858 37.9289 64.4858 38.1044 64.6615H38.28C37.9288 65.0129 37.7533 65.0129 37.5777 65.0129C37.0509 65.0129 36.6997 65.0129 36.1729 65.0129C35.9973 65.0129 35.9973 65.0129 35.8217 64.8372C35.8217 64.8372 35.9973 64.8372 36.1729 64.6615C35.9973 64.6615 35.8217 64.6615 35.8217 64.6615C35.6461 64.6615 35.6461 64.8372 35.6461 64.8372C35.6461 65.0129 35.6461 65.0129 35.4705 65.0129C35.1193 65.0129 34.7681 65.1886 34.2414 65.1886C33.8902 65.1886 33.3634 65.1886 33.0122 65.1886C32.661 65.1886 32.4854 65.0129 32.3098 64.8372C32.1342 64.6615 31.9586 64.31 31.783 64.1343C31.6074 64.1343 31.6074 63.9586 31.6074 63.7829C31.6074 57.4573 31.6074 51.1318 31.6074 44.9819C31.6074 44.4547 31.783 44.1033 31.9586 43.7519C32.4854 41.9948 33.1878 40.4134 33.7146 38.6563C34.0658 37.2506 34.5925 36.0206 34.9437 34.615C34.9437 34.4392 35.1193 34.2635 35.1193 34.0878C35.1193 33.9121 35.4705 33.9121 35.6461 33.9121C36.5241 33.9121 37.2265 33.9121 38.1044 33.9121C38.6312 33.9121 38.9824 33.9121 39.5092 33.9121C44.7771 33.9121 50.0449 33.9121 55.3128 33.9121C55.4884 33.9121 55.664 33.9121 55.8396 34.0878C56.0152 34.2635 56.1908 34.4392 56.1908 34.615C56.3664 34.9664 56.5419 35.3178 56.3663 35.6692C56.1908 35.8449 56.1908 36.1963 56.3663 36.3721C56.3663 36.5478 56.3663 36.7235 56.3663 36.8992C56.3663 37.602 56.3663 38.1292 56.3663 38.832C56.3663 39.5349 56.3663 40.062 56.3663 40.7648C56.3663 41.292 56.3663 41.8191 56.3663 42.3462C56.3663 43.7519 56.3663 45.1576 56.3663 46.5633C56.3663 48.1447 56.3663 49.7261 56.3663 51.3075C56.3663 51.8346 56.3663 52.3617 56.3663 52.8889C56.3663 53.416 56.3663 53.9431 56.3663 54.4703C56.3663 54.8217 56.3663 54.9974 56.3663 55.3488C56.3663 56.0516 56.3664 56.7545 56.5419 57.2816C56.5419 57.633 56.5419 57.8087 56.5419 58.1602C56.5419 58.5116 56.5419 58.863 56.3663 59.2144C56.3663 59.3901 56.3663 59.3902 56.3663 59.5659C56.3663 60.093 56.3663 60.7958 56.3663 61.323C56.3663 61.8501 56.3663 62.2015 56.3663 62.7286C56.3663 62.9044 56.3663 62.9044 56.3663 63.0801C55.664 63.0801 55.664 63.0801 55.4884 62.9044Z" fill="white"/>
<path d="M9.4821 5.97334C9.65769 6.50047 10.0089 6.67618 10.3601 7.0276C10.7113 7.55473 11.0625 7.90615 11.4136 8.43329C11.7648 8.96042 12.116 9.48755 12.6428 9.83897C13.1696 10.3661 13.5208 11.0689 14.0476 11.5961C14.5744 12.2989 14.9255 13.0018 15.6279 13.5289C15.9791 14.4074 16.6815 14.7589 17.5595 14.9346C18.2619 15.1103 18.7886 15.286 19.491 15.4617C20.1934 15.6374 20.7202 15.8131 21.247 16.1646C21.9494 16.516 22.4761 16.8674 23.0029 17.3945C23.3541 17.7459 23.8809 18.0974 24.2321 18.4488C24.7589 18.9759 25.4613 19.5031 25.9881 20.0302C26.6904 20.733 27.3928 21.6116 28.0952 22.4901C28.4464 23.0173 28.7976 23.7201 28.9732 24.4229C28.9732 24.5987 28.9732 24.9501 28.9732 25.3015C28.9732 26.0043 28.9732 26.5315 28.7976 27.2343C28.622 27.7614 28.2708 28.2886 28.0952 28.64C27.9196 29.1671 27.5684 29.5186 27.3928 30.0457C27.0416 30.5728 26.866 31.1 26.866 31.8028C26.6904 32.3299 26.6904 32.8571 26.5148 33.3842C26.5148 33.7356 26.5148 34.087 26.3392 34.2627C26.3392 34.4385 26.3392 34.4385 26.1636 34.4385C25.2857 34.4385 24.5833 34.4385 23.7053 34.4385C22.4761 34.4385 21.247 34.4385 20.0178 34.4385C19.1398 34.4385 18.2619 34.4385 17.3839 34.4385H17.5595C18.0863 34.4385 18.6131 34.4385 18.9642 34.4385C18.9642 34.4385 19.3154 34.4385 19.1398 34.6142C19.1398 34.6142 18.9642 34.6142 18.7886 34.6142C18.4375 34.6142 18.0863 34.6142 17.5595 34.6142C16.5059 34.6142 15.4523 34.6142 14.2232 34.6142C14.0476 34.6142 13.6964 34.6142 13.5208 34.4385C13.5208 34.4385 13.3452 34.2627 13.3452 34.4385V34.6142C13.3452 34.6142 13.3452 34.6142 13.3452 34.7899C13.1696 34.9656 13.1696 34.9656 12.994 34.9656C12.994 34.9656 12.8184 34.9656 12.8184 34.7899C12.8184 34.4385 12.4672 34.4385 12.2916 34.4385C11.4136 34.2627 10.3601 34.4385 9.4821 34.4385C9.3065 34.4385 9.13091 34.4385 8.77972 34.4385C8.95531 34.4385 9.13091 34.6142 9.13091 34.6142C9.13091 34.6142 9.3065 34.6142 9.3065 34.7899C9.3065 34.7899 9.3065 34.7899 9.13091 34.7899C8.95531 34.7899 8.95531 34.7899 8.77972 34.7899C7.72614 34.9656 6.84817 34.9656 5.7946 34.9656C5.44341 34.9656 5.26781 34.9656 5.09222 34.6142L4.91662 34.4385C4.56543 34.2627 4.56543 33.9113 4.56543 33.5599C4.56543 28.64 4.56543 23.8958 4.56543 18.9759C4.56543 14.056 4.56543 8.96042 4.56543 4.04052C4.56543 3.6891 4.56543 3.33768 4.91662 3.16197C5.26781 3.16197 5.44341 2.98626 5.619 2.81055H5.7946C6.49698 2.81055 7.37495 2.81055 8.07733 2.81055C11.7648 2.81055 15.6279 2.81055 19.3154 2.81055C19.6666 2.81055 20.1934 2.81055 20.5446 2.81055C21.5982 2.81055 22.6517 2.81055 23.7053 2.81055C24.5833 2.81055 25.6369 2.81055 26.5148 2.81055C27.5684 2.81055 28.622 2.81055 29.5 2.81055C29.6755 2.81055 29.8511 2.81055 29.8511 2.98626C30.0267 3.16197 30.3779 3.51339 30.5535 3.6891C30.7291 3.86481 30.7291 3.86481 30.7291 4.04052C30.7291 5.44621 30.7291 6.85189 30.7291 8.25758C30.7291 10.1904 30.7291 12.1232 30.7291 14.056C30.7291 14.4074 30.7291 14.7589 30.5535 15.1103C30.5535 15.1103 30.5535 15.286 30.3779 15.286C30.3779 15.286 30.2023 15.286 30.2023 15.1103C30.0267 14.9346 30.0267 14.7589 30.0267 14.5832C29.8511 14.056 29.8511 13.3532 29.8511 12.8261C29.8511 12.1232 30.0267 11.5961 30.0267 10.8932C30.0267 10.1904 30.2023 9.66326 29.8511 8.96042C29.6755 8.609 29.5 8.43329 29.1488 8.25758C28.7976 8.08186 28.4464 7.90615 27.9196 7.73044C27.0416 7.55473 26.1636 7.73044 25.4613 8.609C25.1101 9.13613 24.7589 9.83897 24.5833 10.5418C24.4077 11.2447 24.4077 11.9475 24.7589 12.6503C24.9345 13.0018 25.1101 13.3532 25.4613 13.7046C25.6369 13.8803 25.988 14.056 26.1636 14.4074C26.3392 14.5832 26.3392 14.5832 26.1636 14.7589C26.1636 14.7589 26.1636 14.7589 25.9881 14.7589C25.6369 14.7589 25.1101 14.7589 24.7589 14.7589C23.7053 14.7589 22.6517 14.5832 21.7738 14.2317C20.8958 13.8803 20.0178 13.5289 19.1398 13.1775C18.2619 12.8261 17.2083 12.2989 16.1547 11.5961C15.4523 11.0689 14.75 10.7175 14.0476 10.0147C13.3452 9.48755 12.6428 8.78471 12.2916 7.90615C12.2916 7.73044 12.116 7.55473 11.9404 7.37902C11.9404 7.20331 11.7648 7.20331 11.7648 7.37902C11.4136 7.73044 11.4136 7.73044 11.0625 7.37902C10.7113 7.20331 10.3601 6.67618 9.83329 6.32476C9.83329 6.14905 9.65769 6.14905 9.4821 5.97334Z" fill="white"/>
<path d="M11.063 34.6151C11.2386 34.6151 11.5898 34.6151 11.9409 34.6151C11.9409 34.6151 12.1165 34.6151 12.1165 34.7908L11.9409 34.9665C11.4142 34.9665 11.063 34.9665 10.5362 34.9665C10.3606 34.9665 10.185 34.9665 9.8338 34.7908C9.8338 34.7908 9.6582 34.7908 9.6582 34.6151C9.6582 34.6151 9.6582 34.6151 9.8338 34.4394C10.0094 34.2637 10.3606 34.2637 10.5362 34.2637C10.7118 34.4394 10.8874 34.6151 11.063 34.6151Z" fill="white"/>
<path d="M39.509 64.8378C39.509 65.0135 39.509 65.0135 39.509 64.8378C39.3334 65.0135 39.1578 65.0135 38.9822 65.0135C38.9822 65.0135 38.8066 65.0135 38.8066 64.8378C38.8066 64.8378 38.8066 64.6621 38.9822 64.6621C39.1578 64.8378 39.3334 64.8378 39.509 64.8378Z" fill="white"/>
<path d="M41.0895 32.1542H40.9139C40.7383 31.9785 40.7383 31.9785 40.9139 31.9785C41.0895 31.9785 41.0895 31.9785 41.2651 31.9785L41.4407 32.1542C41.4407 32.1542 41.2651 32.1542 41.0895 32.1542Z" fill="white"/>
<path d="M23.3541 34.6152C23.3541 34.7909 23.1785 34.7909 23.1785 34.7909C23.0029 34.7909 23.0029 34.7909 23.0029 34.6152C23.0029 34.4395 23.1785 34.4395 23.1785 34.4395C23.1785 34.4395 23.1785 34.6152 23.3541 34.6152Z" fill="white"/>
</g>
<defs>
<clipPath id="clip0_40_4909">
<rect width="59" height="68" fill="white"/>
</clipPath>
</defs>
</svg>
